<?xml version="1.0" encoding="UTF-8" standalone="no"?>
<!DOCTYPE svg PUBLIC "-//W3C//DTD SVG 1.1//EN" "http://www.w3.org/Graphics/SVG/1.1/DTD/svg11.dtd">
<svg version="1.1" xmlns="http://www.w3.org/2000/svg" xmlns:xlink="http://www.w3.org/1999/xlink" preserveAspectRatio="xMidYMid meet" viewBox="75.08631643643187 44.96860869565218 505.4353063701491 403.8443913043478" width="501.44" height="399.84"><defs><path d="M466.82 58.03C461.12 55.81 454.62 56.89 449.97 60.88C449.02 61.68 355.5 141.19 298.66 169.31C317.51 175.93 468.26 228.87 487.1 235.49C493.22 202.88 478.97 84.87 477.33 71.53C476.58 65.44 472.54 60.24 466.82 58.03Z" id="b1z2QHXFh"></path><path d="M187.9 58.03C182.18 60.25 178.14 65.44 177.39 71.53C175.73 84.92 161.45 203.27 167.65 235.68C186.01 228.8 332.86 173.72 351.22 166.84C293.97 136.73 205.65 61.63 204.75 60.88C200.1 56.89 193.61 55.81 187.9 58.03Z" id="a4AlfTuce"></path><path d="M332.33 204.9C266.94 184.49 100.96 114.3 99.29 113.6C93.74 111.25 87.37 112.05 82.57 115.73C77.8 119.43 75.39 125.41 76.26 131.38C77.39 138.94 105.67 317.07 183.94 375.76C222.64 404.8 257.59 416.25 287.39 416.25C322.9 416.25 351.12 400.02 369.72 377.9C362.24 343.3 339.81 239.5 332.33 204.9Z" id="c5fqc21Q"></path><path d="M554.3 113.6C552.62 114.32 384.61 185.85 320.57 205.46C322.3 221.26 336.19 347.7 337.93 363.5C364.57 384.67 390.45 395.31 415.21 395.31C513.35 395.31 563.23 227.04 577.34 131.38C578.22 125.41 575.81 119.43 571.04 115.73C566.25 112.05 559.9 111.25 554.3 113.6Z" id="eZ5p15KaP"></path><path d="M327.36 45.97C322.12 45.97 316.87 48.18 313.75 52.59C309.54 58.55 210.62 199.41 210.62 295.72C210.62 406.38 270.93 445.81 327.36 445.81C383.79 445.81 444.1 406.38 444.1 295.72C444.1 199.41 345.18 58.55 340.98 52.59C337.85 48.18 332.61 45.97 327.36 45.97Z" id="csShFaWPy"></path><path d="M340.98 52.59C337.85 48.18 332.61 45.97 327.36 45.97C327.36 85.95 327.36 405.83 327.36 445.81C383.79 445.81 444.1 406.38 444.1 295.72C444.1 199.41 345.18 58.55 340.98 52.59Z" id="cMGu1NB4t"></path><path d="M330.78 102.39C323.42 102.39 317.44 108.36 317.44 115.73C317.44 123.1 323.42 129.07 330.78 129.07C338.15 129.07 344.13 123.1 344.13 115.73C344.13 108.36 338.15 102.39 330.78 102.39Z" id="a2R67HqfAf"></path><path d="M376.52 346.9L335.09 348.01C338.15 366.7 339.86 377.08 340.2 379.15C340.2 379.15 378 383.75 384.06 383.54C390.11 383.33 430.42 372.26 430.42 372.26C431.33 371.51 435.85 367.75 444 360.98L444.83 352L376.52 346.9Z" id="b2FIO2R2rn"></path><path d="M376.53 346.91C371.97 346.91 349.21 346.9 308.23 346.9C324.76 364.37 333.95 374.07 335.78 376.01C335.78 376.01 335.63 366.47 353.91 369.61C372.2 372.74 392.77 363.28 407.97 358.78C423.17 354.27 440.91 357.93 440.91 357.93C440.91 357.93 412.76 359.62 387.14 367.79C361.52 375.95 344.06 373.98 344.06 373.98C340.4 371.17 335.61 363 327.45 365.25C319.28 367.51 320.69 372.01 313.65 376.52C306.61 381.02 301.83 376.23 294.22 376.52C286.62 376.8 284.37 376.23 276.49 383.27C268.6 390.31 275.64 394.25 284.37 392.28C293.1 390.31 298.17 394.25 317.87 394.82C337.58 395.38 390.23 395.38 420.64 394.82C451.05 394.25 467.1 375.11 470.76 366.66C474.42 358.21 470.19 348.92 456.96 345.26C443.73 341.6 392.61 346.58 376.53 346.91Z" id="b37mDTvUkR"></path><path d="M290.25 346.71C290.25 346.71 247.2 348.8 236.25 346.71C225.29 344.62 203.64 351.4 197.11 361.58C190.59 371.75 200.24 383.75 211.98 388.97C223.72 394.19 225.81 392.88 246.68 393.93C267.55 394.97 281.38 395.51 291.29 395.24C301.21 394.97 317.87 394.82 317.87 394.82C319.65 394.64 328.53 393.73 344.51 392.1L339.25 369.3L335.09 348.01C311.17 347.32 296.23 346.88 290.25 346.71Z" id="a3jAOzvbEb"></path><path d="M471.42 329.9C471.42 329.9 471.42 329.9 471.08 326.78C470.74 323.68 469.69 323.56 469.01 323.56C468.32 323.56 467.24 325.95 467.28 329.44C467.31 332.92 465.09 335.76 463.6 335.99C462.1 336.23 462.67 332.89 462.67 332.89C468.19 326.78 468.01 322.71 468.01 322.71C469.33 315.94 464.51 316.91 464.51 316.91C463.16 324.29 456.04 331.38 456.04 331.38C456.04 331.38 446.64 332.89 442.14 332.89C437.64 332.89 408.36 311.11 401.23 298.73C394.09 286.34 397.1 240.54 395.97 226.27C394.85 212.01 391.47 212.38 375.7 208.26C371.18 207.07 367.13 206.13 363.61 205.26C359.91 204.35 356.84 203.52 354.46 202.55C351.24 201.24 349.36 199.7 349.05 197.37C348.29 191.74 349.05 178.96 349.05 178.96C347.84 179.04 341.83 179.43 331 180.12C320.17 179.43 314.16 179.04 312.95 178.96C312.95 178.96 313.71 191.74 312.95 197.37C312.64 199.7 310.76 201.24 307.54 202.55C305.16 203.52 302.09 204.35 298.39 205.26C294.87 206.13 290.82 207.07 286.3 208.26C270.53 212.38 267.15 212.01 266.03 226.27C264.9 240.54 267.91 286.34 260.77 298.73C253.64 311.11 224.36 332.89 219.86 332.89C215.36 332.89 205.96 331.38 205.96 331.38C205.96 331.38 198.84 324.29 197.49 316.91C197.49 316.91 192.67 315.94 193.99 322.71C193.99 322.71 193.81 326.78 199.33 332.89C199.33 332.89 199.9 336.23 198.4 335.99C196.91 335.76 194.69 332.92 194.72 329.44C194.76 325.95 193.68 323.56 192.99 323.56C192.31 323.56 191.26 323.68 190.92 326.78C190.58 329.9 190.58 329.9 190.58 329.9C190.58 329.9 186.09 329.9 185.4 324.02C185.4 324.02 180.22 322.64 182.05 330.58C183.9 338.54 188.62 346.71 198.64 348.66C198.64 348.66 211.41 351.64 226.32 343.68C241.24 335.72 263.11 326.77 268.82 322.05C274.54 317.33 277.84 318.86 280.74 309.88C283.18 302.36 287.35 267.95 287.02 256.33C289.17 266.99 294.84 296.88 293.42 308.63C291.68 323.05 286.96 329.52 285.48 346.9C288.51 346.9 303.69 346.9 331 346.9C358.31 346.9 373.49 346.9 376.52 346.9C375.04 329.52 370.32 323.05 368.58 308.63C367.16 296.88 372.83 266.99 374.98 256.33C374.65 267.95 378.82 302.36 381.26 309.88C384.16 318.86 387.46 317.33 393.18 322.05C398.89 326.77 420.76 335.72 435.68 343.68C450.59 351.64 463.36 348.66 463.36 348.66C473.38 346.71 478.1 338.54 479.95 330.58C481.78 322.64 476.6 324.02 476.6 324.02C475.91 329.9 472.45 328.73 471.42 329.9Z" id="gxnaMnokR"></path><path d="M375.55 253.53C375.53 252.84 375.52 252.47 375.52 252.47C375.52 252.47 362.14 224.19 363.61 205.26C359.91 204.35 356.84 203.52 354.46 202.55C354.31 205.42 353.86 212.14 352.84 219.96C351.47 230.39 349.42 241.47 332.88 242.12C332.19 242.15 331.59 242.16 331 242.19C330.41 242.16 329.81 242.15 329.12 242.12C312.58 241.47 310.53 230.39 309.16 219.96C308.14 212.14 307.69 205.42 307.54 202.55C305.16 203.52 302.09 204.35 298.39 205.26C299.86 224.19 286.48 252.47 286.48 252.47C286.48 252.47 286.47 252.84 286.45 253.53C287.82 260.13 295 295.58 293.42 308.63C291.68 323.05 286.96 329.52 285.48 346.9C288.51 346.9 303.69 346.9 331 346.9C358.31 346.9 373.49 346.9 376.52 346.9C375.04 329.52 370.32 323.05 368.58 308.63C367 295.58 374.18 260.13 375.55 253.53Z" id="c1xxPIY1P"></path><path d="M276.35 372.35C276.35 372.35 306.83 375.23 313.83 377.7C314.53 377.07 320.13 372.01 320.83 371.38C320.83 371.38 306.83 366.99 298.18 366.99C298.18 366.99 279.65 368.64 279.65 368.64C279.65 368.64 237.23 360.82 223.64 365.35C223.64 365.35 258.23 362.88 276.35 372.35Z" id="c6RTC4EzF"></path><path d="M327.45 365.25C319.28 367.51 320.69 372.01 313.65 376.52C306.61 381.02 301.83 376.23 294.22 376.52C286.62 376.8 284.37 376.23 276.49 383.27C268.6 390.31 275.64 394.25 284.37 392.28C293.1 390.31 298.17 394.25 317.87 394.82C323.86 394.99 332.89 395.11 343.4 395.17C343.4 393.72 343.4 386.48 343.4 373.43C337.89 366.57 332.57 363.84 327.45 365.25Z" id="d2f3Bgn0lU"></path><path d="M362.77 156.26C362.77 177.76 348.45 195.2 330.78 195.2C313.12 195.2 298.8 177.76 298.8 156.26C298.8 134.76 313.12 117.33 330.78 117.33C348.45 117.33 362.77 134.76 362.77 156.26Z" id="b1ieGcM5Us"></path><path d="M304.81 164.76C304.81 183.92 316.68 199.46 331.31 199.46C345.95 199.46 357.81 183.92 357.81 164.76C357.81 145.6 335.35 115.99 331.31 130.06C321.36 164.76 304.81 145.6 304.81 164.76Z" id="b10Fbo1nWn"></path></defs><g><g><use xlink:href="#b1z2QHXFh" opacity="1" fill="#ff5e95" fill-opacity="1"></use><g><use xlink:href="#b1z2QHXFh" opacity="1" fill-opacity="0" stroke="#000000" stroke-width="1" stroke-opacity="0"></use></g></g><g><use xlink:href="#a4AlfTuce" opacity="1" fill="#ff7cb9" fill-opacity="1"></use><g><use xlink:href="#a4AlfTuce" opacity="1" fill-opacity="0" stroke="#000000" stroke-width="1" stroke-opacity="0"></use></g></g><g><use xlink:href="#c5fqc21Q" opacity="1" fill="#ff9ac9" fill-opacity="1"></use><g><use xlink:href="#c5fqc21Q" opacity="1" fill-opacity="0" stroke="#000000" stroke-width="1" stroke-opacity="0"></use></g></g><g><use xlink:href="#eZ5p15KaP" opacity="1" fill="#ff7cb9" fill-opacity="1"></use><g><use xlink:href="#eZ5p15KaP" opacity="1" fill-opacity="0" stroke="#000000" stroke-width="1" stroke-opacity="0"></use></g></g><g><use xlink:href="#csShFaWPy" opacity="1" fill="#ffb6fa" fill-opacity="1"></use><g><use xlink:href="#csShFaWPy" opacity="1" fill-opacity="0" stroke="#000000" stroke-width="1" stroke-opacity="0"></use></g></g><g><use xlink:href="#cMGu1NB4t" opacity="1" fill="#ff9ac9" fill-opacity="1"></use><g><use xlink:href="#cMGu1NB4t" opacity="1" fill-opacity="0" stroke="#000000" stroke-width="1" stroke-opacity="0"></use></g></g><g><use xlink:href="#a2R67HqfAf" opacity="1" fill="#474c5b" fill-opacity="1"></use><g><use xlink:href="#a2R67HqfAf" opacity="1" fill-opacity="0" stroke="#000000" stroke-width="1" stroke-opacity="0"></use></g></g><g><use xlink:href="#b2FIO2R2rn" opacity="1" fill="#2f4859" fill-opacity="1"></use><g><use xlink:href="#b2FIO2R2rn" opacity="1" fill-opacity="0" stroke="#000000" stroke-width="1" stroke-opacity="0"></use></g></g><g><use xlink:href="#b37mDTvUkR" opacity="1" fill="#4d5c7d" fill-opacity="1"></use><g><use xlink:href="#b37mDTvUkR" opacity="1" fill-opacity="0" stroke="#000000" stroke-width="1" stroke-opacity="0"></use></g></g><g><use xlink:href="#a3jAOzvbEb" opacity="1" fill="#4d5c7d" fill-opacity="1"></use><g><use xlink:href="#a3jAOzvbEb" opacity="1" fill-opacity="0" stroke="#000000" stroke-width="1" stroke-opacity="0"></use></g></g><g><use xlink:href="#gxnaMnokR" opacity="1" fill="#f7be56" fill-opacity="1"></use><g><use xlink:href="#gxnaMnokR" opacity="1" fill-opacity="0" stroke="#000000" stroke-width="1" stroke-opacity="0"></use></g></g><g><use xlink:href="#c1xxPIY1P" opacity="1" fill="#ebf0f3" fill-opacity="1"></use><g><use xlink:href="#c1xxPIY1P" opacity="1" fill-opacity="0" stroke="#000000" stroke-width="1" stroke-opacity="0"></use></g></g><g><use xlink:href="#c6RTC4EzF" opacity="1" fill="#2f4859" fill-opacity="1"></use><g><use xlink:href="#c6RTC4EzF" opacity="1" fill-opacity="0" stroke="#000000" stroke-width="1" stroke-opacity="0"></use></g></g><g><use xlink:href="#d2f3Bgn0lU" opacity="1" fill="#fcd462" fill-opacity="1"></use><g><use xlink:href="#d2f3Bgn0lU" opacity="1" fill-opacity="0" stroke="#000000" stroke-width="1" stroke-opacity="0"></use></g></g><g><use xlink:href="#b1ieGcM5Us" opacity="1" fill="#474c5b" fill-opacity="1"></use><g><use xlink:href="#b1ieGcM5Us" opacity="1" fill-opacity="0" stroke="#000000" stroke-width="1" stroke-opacity="0"></use></g></g><g><use xlink:href="#b10Fbo1nWn" opacity="1" fill="#fcd462" fill-opacity="1"></use><g><use xlink:href="#b10Fbo1nWn" opacity="1" fill-opacity="0" stroke="#000000" stroke-width="1" stroke-opacity="0"></use></g></g></g></svg>